<?xml version="1.0" encoding="UTF-8"?>
<svg id="_图层_1" data-name="图层 1" xmlns="http://www.w3.org/2000/svg" xmlns:xlink="http://www.w3.org/1999/xlink" viewBox="0 0 612.26 461.58">
  <defs>
    <style>
      .cls-1 {
        fill: none;
      }

      .cls-2 {
        fill: #feec7e;
        stroke-width: 2px;
      }

      .cls-2, .cls-3 {
        stroke: #211815;
        stroke-miterlimit: 10;
      }

      .cls-4 {
        clip-path: url(#clippath-1);
      }

      .cls-3 {
        fill: #fff;
      }

      .cls-5 {
        clip-path: url(#clippath);
      }
    </style>
    <clipPath id="clippath">
      <rect class="cls-1" x="149.66" y="128.25" width="36.56" height="89.66"/>
    </clipPath>
    <clipPath id="clippath-1">
      <rect class="cls-1" x="186.22" y="128.25" width="36.56" height="89.66"/>
    </clipPath>
  </defs>
  <g>
    <g id="_镜像重复_" data-name="&amp;lt;镜像重复&amp;gt;">
      <g class="cls-5">
        <path class="cls-2" d="M188.19,201.83v-15.32c.64.09,1.3.17,1.97.24v-57.5h-39.31c-.33,4.58-.39,11.61,1.48,19.88,1.89,8.35,4.64,20.5,15.58,29.1,2.07,1.63,6.15,4.48,12.4,6.49v17.11h-8.86c-.57,0-4.37.01-6.89,2.83-.88.98-1.36,2.02-1.64,2.83h-1.31c-.57,0-4.37.01-6.89,2.83-1.56,1.73-1.91,3.72-1.97,4.09-.17,1.03-.1,1.91,0,2.51h34.47v-5.66h9.85v-9.43h-8.86Z"/>
      </g>
    </g>
    <g id="_镜像重复_-2" data-name="&amp;lt;镜像重复&amp;gt;">
      <g class="cls-4">
        <path class="cls-2" d="M184.25,201.83v-15.32c-.64.09-1.3.17-1.97.24v-57.5h39.31c.33,4.58.39,11.61-1.48,19.88-1.89,8.35-4.64,20.5-15.58,29.1-2.07,1.63-6.15,4.48-12.4,6.49v17.11h8.86c.57,0,4.37.01,6.89,2.83.88.98,1.36,2.02,1.64,2.83h1.31c.57,0,4.37.01,6.89,2.83,1.56,1.73,1.91,3.72,1.97,4.09.17,1.03.1,1.91,0,2.51h-34.47v-5.66h-9.85v-9.43h8.86Z"/>
      </g>
    </g>
  </g>
  <polygon class="cls-3" points="187.28 136.64 193.36 148.17 206.22 150.39 197.12 159.74 198.98 172.65 187.28 166.9 175.58 172.65 177.44 159.74 168.35 150.39 181.2 148.17 187.28 136.64"/>
</svg>