<?xml version="1.0" encoding="UTF-8"?>
<svg id="_图层_2" data-name="图层 2" xmlns="http://www.w3.org/2000/svg" xmlns:xlink="http://www.w3.org/1999/xlink" viewBox="0 0 74.11 90.66">
  <defs>
    <style>
      .cls-1 {
        fill: none;
      }

      .cls-2 {
        fill: #fff;
        stroke-width: 2px;
      }

      .cls-2, .cls-3 {
        stroke: #231815;
        stroke-miterlimit: 10;
      }

      .cls-3 {
        fill: #ffec69;
        stroke-width: 3px;
      }

      .cls-4 {
        clip-path: url(#clippath-1);
      }

      .cls-5 {
        clip-path: url(#clippath);
      }
    </style>
    <clipPath id="clippath">
      <rect class="cls-1" width="37.06" height="90.66"/>
    </clipPath>
    <clipPath id="clippath-1">
      <rect class="cls-1" x="37.06" y="0" width="37.06" height="90.66"/>
    </clipPath>
  </defs>
  <g id="_图层_1-2" data-name="图层 1">
    <g>
      <g>
        <g id="_镜像重复_" data-name="&amp;lt;镜像重复&amp;gt;">
          <g class="cls-5">
            <path class="cls-3" d="M39.03,74.08v-15.32c.64.09,1.3.17,1.97.24V1.5H1.68c-.33,4.58-.39,11.61,1.48,19.88,1.89,8.35,4.64,20.5,15.58,29.1,2.07,1.63,6.15,4.48,12.4,6.49v17.11h-8.86c-.57,0-4.37.01-6.89,2.83-.88.98-1.36,2.02-1.64,2.83h-1.31c-.57,0-4.37.01-6.89,2.83-1.56,1.73-1.91,3.72-1.97,4.09-.17,1.03-.1,1.91,0,2.51h34.47v-5.66h9.85v-9.43h-8.86Z"/>
          </g>
        </g>
        <g id="_镜像重复_-2" data-name="&amp;lt;镜像重复&amp;gt;">
          <g class="cls-4">
            <path class="cls-3" d="M35.09,74.08v-15.32c-.64.09-1.3.17-1.97.24V1.5h39.31c.33,4.58.39,11.61-1.48,19.88-1.89,8.35-4.64,20.5-15.58,29.1-2.07,1.63-6.15,4.48-12.4,6.49v17.11h8.86c.57,0,4.37.01,6.89,2.83.88.98,1.36,2.02,1.64,2.83h1.31c.57,0,4.37.01,6.89,2.83,1.56,1.73,1.91,3.72,1.97,4.09.17,1.03.1,1.91,0,2.51h-34.47v-5.66h-9.85v-9.43h8.86Z"/>
          </g>
        </g>
      </g>
      <polygon class="cls-2" points="38.12 8.89 44.2 20.42 57.05 22.64 47.96 31.99 49.82 44.9 38.12 39.15 26.41 44.9 28.27 31.99 19.18 22.64 32.03 20.42 38.12 8.89"/>
    </g>
  </g>
</svg>